<svg width="1323" height="542" viewBox="0 0 1323 542" fill="none" xmlns="http://www.w3.org/2000/svg">
<mask id="path-1-outside-1_1_6" maskUnits="userSpaceOnUse" x="0" y="0" width="1323" height="542" fill="black">
<rect fill="white" width="1323" height="542"/>
<path d="M1 519.372C1 513.482 44.8655 473.557 46.8296 473.557H70.3991V105.731C70.3991 102.459 98.5516 71.0432 110.991 62.5348H20.6413C19.9866 59.2624 59.2691 16.7202 59.9238 16.7202H184.973C184.973 22.6106 141.108 62.5348 139.144 62.5348H116.229V430.361C116.229 433.633 88.0762 465.049 75.6368 473.557H165.332C165.987 476.83 125.395 519.372 119.502 519.372H1Z"/>
<path d="M261.032 523.299C241.391 514.791 221.749 506.937 202.763 499.083L166.099 483.375C164.79 483.375 170.682 476.175 171.337 475.521C176.574 469.63 181.812 463.74 187.05 458.504L190.323 455.232V93.9506C190.323 90.6781 193.597 87.4056 195.561 85.4421L211.274 68.4253C216.512 63.1893 222.404 57.9534 228.296 52.7174L230.915 49.4449C236.153 43.5545 241.391 37.664 246.628 32.4281C252.521 26.5376 257.758 21.3017 263.651 16.7202C263.651 16.7202 270.198 10.1753 272.162 10.8298C285.911 16.7202 312.099 28.5011 326.503 33.7371C333.705 37.0095 340.252 39.6275 348.108 40.282C357.929 40.9365 367.095 39.6275 376.261 37.0095L375.606 37.664C376.915 37.0095 377.57 37.0095 376.915 38.3185C376.261 39.6275 375.606 40.282 374.951 40.9365C371.023 46.8269 366.44 51.4084 361.857 55.9899C355.965 61.8803 350.072 67.7708 343.525 73.6612L336.978 79.5517C335.014 80.8607 333.705 82.1697 331.74 82.8241C322.574 86.0966 310.79 87.4056 300.969 86.7511V362.293C300.969 362.948 300.969 395.018 298.35 395.018C297.041 395.018 296.386 384.546 296.386 385.855C295.731 378.001 295.731 370.147 295.731 362.293V86.0966C289.839 84.1332 283.947 81.5152 278.709 79.5517C266.924 74.9702 249.902 67.7708 236.153 61.8803V445.414L235.498 447.378C251.866 453.923 268.234 460.468 284.601 467.667L316.682 481.411L354.655 442.796C354 443.451 361.857 436.251 362.512 437.56C363.821 438.215 356.619 446.069 357.274 445.414C340.906 465.049 323.229 483.375 305.552 501.701C299.005 508.9 292.458 514.791 285.256 521.336L278.709 527.226C277.4 528.535 276.09 529.189 274.781 529.189L261.032 523.299Z"/>
<path d="M409.554 528.535C407.589 527.226 406.28 525.263 366.997 485.993C366.343 485.338 382.71 467.012 388.603 461.122V91.9871C388.603 86.7511 427.231 49.4449 433.778 45.518C444.908 31.1191 475.024 4.2848 476.989 4.93933L585.67 50.7539C576.504 62.5348 567.993 72.3523 556.863 82.8241V461.122L578.468 482.72C580.433 485.993 533.293 529.844 532.639 528.535C530.675 527.226 528.71 525.263 490.083 485.993C488.773 485.338 494.666 478.793 511.033 461.122V243.83C499.249 257.574 474.37 283.099 469.787 283.099H434.432V461.122L456.038 482.72C456.693 483.375 410.863 529.844 409.554 528.535ZM434.432 275.9C445.562 262.156 473.06 236.63 476.334 236.63H511.033V84.7876C456.038 61.8803 445.562 57.9534 434.432 53.3719V275.9Z"/>
<path d="M675.549 292.262C691.917 276.555 739.056 235.321 749.531 225.504C749.531 208.487 749.531 99.841 747.567 98.532L680.787 56.6444C677.514 63.1893 675.549 69.7343 675.549 74.9702V292.262ZM608.114 485.993C607.46 485.338 623.827 467.012 629.72 461.122V68.4253C629.72 48.7904 625.792 29.8101 620.554 10.1753C618.59 2.97583 621.863 2.32134 625.792 10.1753C637.576 34.3916 644.778 62.5348 646.742 69.0798C650.016 63.1893 670.312 27.8466 702.392 9.52077C710.904 4.93933 716.141 3.63032 718.105 4.93933C742.984 20.6472 775.72 39.6275 795.361 52.7174C796.67 54.0264 796.67 183.616 795.361 186.234C790.123 196.706 765.244 220.268 725.962 254.956L771.792 280.482C796.016 294.226 800.599 285.063 822.859 268.701C822.204 269.355 828.751 264.119 826.787 268.046C820.895 277.864 811.729 285.717 797.98 300.771V461.777L818.931 482.72C821.549 485.338 775.065 531.153 772.446 528.535L729.89 485.993C727.926 484.029 746.258 467.012 751.496 461.122V330.878C735.128 333.496 731.854 330.223 675.549 299.462V461.122L697.155 482.72C697.809 483.375 651.98 529.844 650.67 528.535C648.706 527.226 647.397 525.263 608.114 485.993Z"/>
<path d="M958.414 528.535C870.683 491.229 937.464 520.027 849.733 482.72C848.423 482.72 865.446 463.086 873.957 454.577V72.3523L852.351 50.7539C849.733 48.136 894.907 2.32134 898.836 4.2848C906.037 10.8298 932.226 35.7006 941.392 46.8269C942.046 48.136 925.679 66.4618 919.786 72.3523V446.069L996.387 478.793V72.3523L974.782 50.7539C972.163 48.136 1017.34 2.32134 1021.27 4.2848C1028.47 10.8298 1054.66 35.7006 1063.82 46.8269C1064.48 48.136 1048.11 66.4618 1042.22 72.3523V444.76L1076.26 479.448C1086.08 464.394 1089.36 437.56 1082.15 421.852C1078.88 408.762 1085.43 414.653 1087.39 421.852C1105.72 482.72 1036.98 534.425 1032.4 528.535C1016.68 512.173 1014.06 507.591 997.697 492.538C982.638 510.209 959.724 529.189 958.414 528.535Z"/>
<path d="M1206.43 540.97C1173.69 502.355 1133.1 356.403 1088.58 328.26C1085.3 325.642 1082.03 326.296 1078.76 328.914C1066.97 337.423 1040.78 356.403 1042.75 351.821C1058.46 327.605 1101.02 297.498 1125.24 279.827V90.0236C1135.72 74.3158 1157.32 53.3719 1167.8 46.1725C1182.2 25.8832 1212.32 0.357847 1213.63 1.01233C1240.47 21.3017 1266 32.4281 1284.34 32.4281C1303.32 32.4281 1322.96 8.2118 1319.04 16.7202C1307.25 36.3551 1268.62 79.5517 1244.4 79.5517C1222.79 79.5517 1203.81 69.0798 1171.73 50.0995V232.049C1173.04 230.085 1199.88 198.67 1216.25 188.852L1321 288.99C1313.8 299.462 1303.98 309.934 1293.5 320.406V444.105C1293.5 446.723 1207.74 542.934 1206.43 540.97ZM1129.17 278.518C1165.83 298.807 1213.63 438.869 1247.02 482.066V309.279L1171.07 235.976C1168.45 241.866 1138.34 271.319 1129.17 278.518Z"/>
</mask>
<path d="M1 519.372C1 513.482 44.8655 473.557 46.8296 473.557H70.3991V105.731C70.3991 102.459 98.5516 71.0432 110.991 62.5348H20.6413C19.9866 59.2624 59.2691 16.7202 59.9238 16.7202H184.973C184.973 22.6106 141.108 62.5348 139.144 62.5348H116.229V430.361C116.229 433.633 88.0762 465.049 75.6368 473.557H165.332C165.987 476.83 125.395 519.372 119.502 519.372H1Z" fill="white"/>
<path d="M261.032 523.299C241.391 514.791 221.749 506.937 202.763 499.083L166.099 483.375C164.79 483.375 170.682 476.175 171.337 475.521C176.574 469.63 181.812 463.74 187.05 458.504L190.323 455.232V93.9506C190.323 90.6781 193.597 87.4056 195.561 85.4421L211.274 68.4253C216.512 63.1893 222.404 57.9534 228.296 52.7174L230.915 49.4449C236.153 43.5545 241.391 37.664 246.628 32.4281C252.521 26.5376 257.758 21.3017 263.651 16.7202C263.651 16.7202 270.198 10.1753 272.162 10.8298C285.911 16.7202 312.099 28.5011 326.503 33.7371C333.705 37.0095 340.252 39.6275 348.108 40.282C357.929 40.9365 367.095 39.6275 376.261 37.0095L375.606 37.664C376.915 37.0095 377.57 37.0095 376.915 38.3185C376.261 39.6275 375.606 40.282 374.951 40.9365C371.023 46.8269 366.44 51.4084 361.857 55.9899C355.965 61.8803 350.072 67.7708 343.525 73.6612L336.978 79.5517C335.014 80.8607 333.705 82.1697 331.74 82.8241C322.574 86.0966 310.79 87.4056 300.969 86.7511V362.293C300.969 362.948 300.969 395.018 298.35 395.018C297.041 395.018 296.386 384.546 296.386 385.855C295.731 378.001 295.731 370.147 295.731 362.293V86.0966C289.839 84.1332 283.947 81.5152 278.709 79.5517C266.924 74.9702 249.902 67.7708 236.153 61.8803V445.414L235.498 447.378C251.866 453.923 268.234 460.468 284.601 467.667L316.682 481.411L354.655 442.796C354 443.451 361.857 436.251 362.512 437.56C363.821 438.215 356.619 446.069 357.274 445.414C340.906 465.049 323.229 483.375 305.552 501.701C299.005 508.9 292.458 514.791 285.256 521.336L278.709 527.226C277.4 528.535 276.09 529.189 274.781 529.189L261.032 523.299Z" fill="white"/>
<path d="M409.554 528.535C407.589 527.226 406.28 525.263 366.997 485.993C366.343 485.338 382.71 467.012 388.603 461.122V91.9871C388.603 86.7511 427.231 49.4449 433.778 45.518C444.908 31.1191 475.024 4.2848 476.989 4.93933L585.67 50.7539C576.504 62.5348 567.993 72.3523 556.863 82.8241V461.122L578.468 482.72C580.433 485.993 533.293 529.844 532.639 528.535C530.675 527.226 528.71 525.263 490.083 485.993C488.773 485.338 494.666 478.793 511.033 461.122V243.83C499.249 257.574 474.37 283.099 469.787 283.099H434.432V461.122L456.038 482.72C456.693 483.375 410.863 529.844 409.554 528.535ZM434.432 275.9C445.562 262.156 473.06 236.63 476.334 236.63H511.033V84.7876C456.038 61.8803 445.562 57.9534 434.432 53.3719V275.9Z" fill="white"/>
<path d="M675.549 292.262C691.917 276.555 739.056 235.321 749.531 225.504C749.531 208.487 749.531 99.841 747.567 98.532L680.787 56.6444C677.514 63.1893 675.549 69.7343 675.549 74.9702V292.262ZM608.114 485.993C607.46 485.338 623.827 467.012 629.72 461.122V68.4253C629.72 48.7904 625.792 29.8101 620.554 10.1753C618.59 2.97583 621.863 2.32134 625.792 10.1753C637.576 34.3916 644.778 62.5348 646.742 69.0798C650.016 63.1893 670.312 27.8466 702.392 9.52077C710.904 4.93933 716.141 3.63032 718.105 4.93933C742.984 20.6472 775.72 39.6275 795.361 52.7174C796.67 54.0264 796.67 183.616 795.361 186.234C790.123 196.706 765.244 220.268 725.962 254.956L771.792 280.482C796.016 294.226 800.599 285.063 822.859 268.701C822.204 269.355 828.751 264.119 826.787 268.046C820.895 277.864 811.729 285.717 797.98 300.771V461.777L818.931 482.72C821.549 485.338 775.065 531.153 772.446 528.535L729.89 485.993C727.926 484.029 746.258 467.012 751.496 461.122V330.878C735.128 333.496 731.854 330.223 675.549 299.462V461.122L697.155 482.72C697.809 483.375 651.98 529.844 650.67 528.535C648.706 527.226 647.397 525.263 608.114 485.993Z" fill="white"/>
<path d="M958.414 528.535C870.683 491.229 937.464 520.027 849.733 482.72C848.423 482.72 865.446 463.086 873.957 454.577V72.3523L852.351 50.7539C849.733 48.136 894.907 2.32134 898.836 4.2848C906.037 10.8298 932.226 35.7006 941.392 46.8269C942.046 48.136 925.679 66.4618 919.786 72.3523V446.069L996.387 478.793V72.3523L974.782 50.7539C972.163 48.136 1017.34 2.32134 1021.27 4.2848C1028.47 10.8298 1054.66 35.7006 1063.82 46.8269C1064.48 48.136 1048.11 66.4618 1042.22 72.3523V444.76L1076.26 479.448C1086.08 464.394 1089.36 437.56 1082.15 421.852C1078.88 408.762 1085.43 414.653 1087.39 421.852C1105.72 482.72 1036.98 534.425 1032.4 528.535C1016.68 512.173 1014.06 507.591 997.697 492.538C982.638 510.209 959.724 529.189 958.414 528.535Z" fill="white"/>
<path d="M1206.43 540.97C1173.69 502.355 1133.1 356.403 1088.58 328.26C1085.3 325.642 1082.03 326.296 1078.76 328.914C1066.97 337.423 1040.78 356.403 1042.75 351.821C1058.46 327.605 1101.02 297.498 1125.24 279.827V90.0236C1135.72 74.3158 1157.32 53.3719 1167.8 46.1725C1182.2 25.8832 1212.32 0.357847 1213.63 1.01233C1240.47 21.3017 1266 32.4281 1284.34 32.4281C1303.32 32.4281 1322.96 8.2118 1319.04 16.7202C1307.25 36.3551 1268.62 79.5517 1244.4 79.5517C1222.79 79.5517 1203.81 69.0798 1171.73 50.0995V232.049C1173.04 230.085 1199.88 198.67 1216.25 188.852L1321 288.99C1313.8 299.462 1303.98 309.934 1293.5 320.406V444.105C1293.5 446.723 1207.74 542.934 1206.43 540.97ZM1129.17 278.518C1165.83 298.807 1213.63 438.869 1247.02 482.066V309.279L1171.07 235.976C1168.45 241.866 1138.34 271.319 1129.17 278.518Z" fill="white"/>
<path d="M376.261 37.0095V37.5095H376.915V37.0095V36.5095H376.261V37.0095ZM1 519.372H0V520.372H1V519.372ZM70.3991 473.557V474.557H71.3991V473.557H70.3991ZM110.991 62.5348L111.556 63.3602L114.224 61.5348H110.991V62.5348ZM20.6413 62.5348L19.6607 62.731L19.8215 63.5348H20.6413V62.5348ZM184.973 16.7202H185.973V15.7202H184.973V16.7202ZM116.229 62.5348V61.5348H115.229V62.5348H116.229ZM75.6368 473.557L75.0722 472.732L72.4035 474.557H75.6368V473.557ZM165.332 473.557L166.312 473.361L166.152 472.557H165.332V473.557ZM261.032 523.299L260.634 524.217L260.638 524.218L261.032 523.299ZM202.763 499.083L202.369 500.002L202.381 500.007L202.763 499.083ZM166.099 483.375L166.493 482.456L166.304 482.375H166.099V483.375ZM171.337 475.521L172.044 476.228L172.065 476.207L172.084 476.185L171.337 475.521ZM187.05 458.504L186.343 457.797V457.797L187.05 458.504ZM190.323 455.232L191.03 455.939L191.323 455.646V455.232H190.323ZM195.561 85.4421L196.268 86.1494L196.282 86.1352L196.296 86.1205L195.561 85.4421ZM211.274 68.4253L210.567 67.7181L210.553 67.7322L210.539 67.7469L211.274 68.4253ZM228.296 52.7174L228.961 53.4649L229.024 53.4085L229.077 53.3422L228.296 52.7174ZM230.915 49.4449L230.168 48.7804L230.151 48.7998L230.134 48.8201L230.915 49.4449ZM246.628 32.4281L247.335 33.1353V33.1353L246.628 32.4281ZM263.651 16.7202L264.264 17.5096L264.314 17.4714L264.358 17.4274L263.651 16.7202ZM272.162 10.8298L272.556 9.91059L272.517 9.89421L272.478 9.88107L272.162 10.8298ZM326.503 33.7371L326.916 32.8267L326.881 32.8105L326.844 32.7972L326.503 33.7371ZM348.108 40.282L348.025 41.2786L348.033 41.2792L348.042 41.2798L348.108 40.282ZM376.261 37.0095L376.968 37.7168L379.697 34.988L375.986 36.048L376.261 37.0095ZM375.606 37.664L374.899 36.9568L376.053 38.5585L375.606 37.664ZM376.915 38.3186L377.81 38.7659L376.915 38.3186ZM374.951 40.9365L374.244 40.2293L374.174 40.2993L374.119 40.3817L374.951 40.9365ZM361.857 55.9899L361.15 55.2826V55.2826L361.857 55.9899ZM343.525 73.6612L342.856 72.9178V72.9178L343.525 73.6612ZM336.978 79.5517L337.533 80.3838L337.593 80.3436L337.647 80.2951L336.978 79.5517ZM331.74 82.8242L331.424 81.8754L331.414 81.8788L331.404 81.8824L331.74 82.8242ZM300.969 86.7511L301.036 85.7534L299.969 85.6823V86.7511H300.969ZM296.386 385.855L295.39 385.938L297.386 385.855H296.386ZM295.731 86.0966H296.731V85.3758L296.048 85.1479L295.731 86.0966ZM278.709 79.5517L278.347 80.4838L278.358 80.488L278.709 79.5517ZM236.153 61.8803L236.547 60.9611L235.153 60.364V61.8803H236.153ZM236.153 445.414L237.102 445.73L237.153 445.576V445.414H236.153ZM235.498 447.378L234.55 447.061L234.251 447.956L235.127 448.306L235.498 447.378ZM284.601 467.667L284.199 468.582L284.208 468.586L284.601 467.667ZM316.682 481.411L316.288 482.331L316.916 482.6L317.395 482.112L316.682 481.411ZM354.655 442.796L355.368 443.497L353.948 442.089L354.655 442.796ZM362.512 437.56L361.617 438.008L361.766 438.306L362.065 438.455L362.512 437.56ZM357.274 445.414L358.042 446.054L356.567 444.707L357.274 445.414ZM305.552 501.701L304.832 501.006L304.822 501.017L304.812 501.028L305.552 501.701ZM285.256 521.336L285.925 522.079L285.929 522.076L285.256 521.336ZM278.709 527.226L278.04 526.483L278.021 526.5L278.002 526.519L278.709 527.226ZM274.781 529.189L274.387 530.109L274.576 530.189H274.781V529.189ZM409.554 528.535L410.26 527.828L410.19 527.758L410.108 527.703L409.554 528.535ZM366.997 485.993L367.704 485.286V485.286L366.997 485.993ZM388.603 461.122L389.31 461.829L389.603 461.536V461.122H388.603ZM433.778 45.518L434.292 46.3755L434.454 46.2786L434.569 46.1295L433.778 45.518ZM476.989 4.93933L477.377 4.01786L477.341 4.00284L477.305 3.99062L476.989 4.93933ZM585.67 50.7539L586.459 51.368L587.26 50.3389L586.059 49.8325L585.67 50.7539ZM556.863 82.8242L556.178 82.0958L555.863 82.392V82.8242H556.863ZM556.863 461.122H555.863V461.536L556.156 461.829L556.863 461.122ZM578.468 482.72L579.326 482.206L579.262 482.1L579.175 482.013L578.468 482.72ZM532.639 528.535L533.533 528.088L533.414 527.85L533.193 527.703L532.639 528.535ZM490.083 485.993L490.796 485.292L490.679 485.173L490.53 485.098L490.083 485.993ZM511.033 461.122L511.767 461.802L512.033 461.514V461.122H511.033ZM511.033 243.83H512.033V241.127L510.274 243.179L511.033 243.83ZM434.432 283.099V282.099H433.432V283.099H434.432ZM434.432 461.122H433.432V461.536L433.725 461.829L434.432 461.122ZM456.038 482.72L455.331 483.428V483.428L456.038 482.72ZM434.432 275.9H433.432V278.724L435.21 276.529L434.432 275.9ZM511.033 236.63V237.63H512.033V236.63H511.033ZM511.033 84.7876H512.033V84.1209L511.418 83.8645L511.033 84.7876ZM434.432 53.3719L434.813 52.4472L433.432 51.8789V53.3719H434.432ZM675.549 292.262H674.549V294.608L676.242 292.984L675.549 292.262ZM749.531 225.504L750.215 226.234L750.531 225.937V225.504H749.531ZM747.567 98.5321L748.122 97.6999L748.11 97.6923L748.099 97.6849L747.567 98.5321ZM680.787 56.6444L681.318 55.7973L680.385 55.212L679.893 56.1971L680.787 56.6444ZM608.114 485.993L608.821 485.286V485.286L608.114 485.993ZM629.72 461.122L630.427 461.829L630.72 461.536V461.122H629.72ZM620.554 10.1753L621.52 9.91751L621.519 9.91206L620.554 10.1753ZM625.792 10.1753L626.691 9.73765L626.686 9.72792L625.792 10.1753ZM646.742 69.0798L645.784 69.3672L646.465 71.6365L647.616 69.5656L646.742 69.0798ZM702.392 9.52077L701.918 8.64023L701.907 8.64621L701.896 8.65246L702.392 9.52077ZM718.105 4.93933L717.551 5.77146L717.561 5.7783L717.572 5.7849L718.105 4.93933ZM795.361 52.7174L796.068 52.0102L795.998 51.9402L795.916 51.8853L795.361 52.7174ZM795.361 186.234L796.255 186.682V186.682L795.361 186.234ZM725.962 254.956L725.3 254.207L724.241 255.142L725.475 255.83L725.962 254.956ZM771.792 280.482L772.285 279.612L772.278 279.608L771.792 280.482ZM822.859 268.701L823.566 269.408L822.267 267.895L822.859 268.701ZM826.787 268.046L827.644 268.561L827.664 268.528L827.681 268.493L826.787 268.046ZM797.98 300.771L797.242 300.096L796.98 300.383V300.771H797.98ZM797.98 461.777H796.98V462.191L797.273 462.484L797.98 461.777ZM818.931 482.72L818.224 483.428V483.428L818.931 482.72ZM772.446 528.535L773.153 527.828V527.828L772.446 528.535ZM729.89 485.993L730.597 485.286V485.286L729.89 485.993ZM751.496 461.122L752.243 461.786L752.496 461.502V461.122H751.496ZM751.496 330.878H752.496V329.705L751.338 329.89L751.496 330.878ZM675.549 299.462L676.029 298.584L674.549 297.776V299.462H675.549ZM675.549 461.122H674.549V461.536L674.842 461.829L675.549 461.122ZM697.155 482.72L697.862 482.013V482.013L697.155 482.72ZM650.67 528.535L651.377 527.828L651.307 527.758L651.225 527.703L650.67 528.535ZM958.414 528.535L958.861 527.641L958.834 527.627L958.806 527.615L958.414 528.535ZM849.733 482.72L850.124 481.8L849.936 481.72H849.733V482.72ZM873.957 454.577L874.664 455.284L874.957 454.991V454.577H873.957ZM873.957 72.3523H874.957V71.9379L874.664 71.645L873.957 72.3523ZM852.351 50.7539L851.644 51.4612V51.4612L852.351 50.7539ZM898.836 4.2848L899.508 3.54475L899.406 3.45199L899.283 3.39032L898.836 4.2848ZM941.392 46.8269L942.286 46.3796L942.236 46.2784L942.164 46.1911L941.392 46.8269ZM919.786 72.3523L919.079 71.645L918.786 71.9379V72.3523H919.786ZM919.786 446.069H918.786V446.729L919.394 446.988L919.786 446.069ZM996.387 478.793L995.994 479.713L997.387 480.308V478.793H996.387ZM996.387 72.3523H997.387V71.9379L997.094 71.645L996.387 72.3523ZM1021.27 4.2848L1021.94 3.54476L1021.84 3.45199L1021.71 3.39031L1021.27 4.2848ZM1063.82 46.8269L1064.72 46.3796L1064.67 46.2784L1064.59 46.1911L1063.82 46.8269ZM1042.22 72.3523L1041.51 71.645L1041.22 71.9379V72.3523H1042.22ZM1042.22 444.76H1041.22V445.168L1041.5 445.46L1042.22 444.76ZM1076.26 479.448L1075.55 480.148L1076.42 481.036L1077.1 479.994L1076.26 479.448ZM1082.15 421.852L1081.18 422.095L1081.21 422.185L1081.25 422.269L1082.15 421.852ZM1087.39 421.852L1086.43 422.116L1086.43 422.128L1086.43 422.141L1087.39 421.852ZM1032.4 528.535L1033.19 527.921L1033.15 527.88L1033.12 527.842L1032.4 528.535ZM997.697 492.538L998.374 491.802L997.609 491.099L996.936 491.889L997.697 492.538ZM1206.43 540.97L1207.26 540.416L1207.23 540.368L1207.19 540.324L1206.43 540.97ZM1088.58 328.26L1087.95 329.041L1088 329.075L1088.04 329.105L1088.58 328.26ZM1078.76 328.914L1079.34 329.725L1079.36 329.71L1079.38 329.695L1078.76 328.914ZM1042.75 351.821L1041.91 351.277L1041.86 351.349L1041.83 351.427L1042.75 351.821ZM1125.24 279.827L1125.83 280.635L1126.24 280.335V279.827H1125.24ZM1125.24 90.0236L1124.41 89.4688L1124.24 89.7208V90.0236H1125.24ZM1167.8 46.1725L1168.36 46.9966L1168.51 46.8961L1168.61 46.7513L1167.8 46.1725ZM1213.63 1.01233L1214.23 0.214579L1214.16 0.159032L1214.07 0.117845L1213.63 1.01233ZM1319.04 16.7202L1319.89 17.2348L1319.92 17.1885L1319.94 17.1394L1319.04 16.7202ZM1171.73 50.0995L1172.24 49.2388L1170.73 48.3459V50.0995H1171.73ZM1171.73 232.049H1170.73V235.351L1172.56 232.604L1171.73 232.049ZM1216.25 188.852L1216.94 188.129L1216.39 187.602L1215.73 187.995L1216.25 188.852ZM1321 288.99L1321.82 289.557L1322.31 288.855L1321.69 288.267L1321 288.99ZM1293.5 320.406L1292.8 319.698L1292.5 319.991V320.406H1293.5ZM1129.17 278.518L1128.55 277.732L1127.37 278.663L1128.69 279.393L1129.17 278.518ZM1247.02 482.066L1246.23 482.677L1248.02 484.995V482.066H1247.02ZM1247.02 309.279H1248.02V308.855L1247.71 308.56L1247.02 309.279ZM1171.07 235.976L1171.77 235.256L1170.74 234.264L1170.16 235.57L1171.07 235.976ZM1 519.372H2C2 519.259 2.07149 518.939 2.37947 518.35C2.6695 517.795 3.11048 517.108 3.69757 516.3C4.86993 514.687 6.56358 512.675 8.62563 510.4C12.7456 505.854 18.2707 500.33 23.8692 494.979C29.4656 489.629 35.1219 484.465 39.4981 480.641C41.6875 478.727 43.5489 477.156 44.9188 476.067C45.6057 475.521 46.1561 475.106 46.5562 474.832C46.7581 474.694 46.9038 474.604 46.9995 474.553C47.0477 474.527 47.066 474.52 47.0608 474.522C47.0574 474.523 47.0382 474.53 47.0065 474.538C46.9775 474.545 46.9148 474.557 46.8296 474.557V473.557V472.557C46.6177 472.557 46.4422 472.617 46.3536 472.651C46.2467 472.691 46.1435 472.742 46.0512 472.792C45.8656 472.892 45.6536 473.026 45.4263 473.182C44.9681 473.496 44.3746 473.945 43.6741 474.502C42.2692 475.619 40.3814 477.213 38.1821 479.135C33.7811 482.98 28.1028 488.165 22.4873 493.533C16.8739 498.899 11.3099 504.46 7.14372 509.057C5.06268 511.353 3.314 513.426 2.07979 515.124C1.4636 515.972 0.96024 516.747 0.606747 517.424C0.271213 518.066 0 518.749 0 519.372H1ZM46.8296 473.557V474.557H70.3991V473.557V472.557H46.8296V473.557ZM70.3991 105.731H71.3991C71.3991 105.79 71.3997 105.667 71.6099 105.253C71.7937 104.891 72.0781 104.419 72.4646 103.84C73.2356 102.686 74.3637 101.183 75.7729 99.423C78.5879 95.9079 82.4795 91.4263 86.7657 86.7742C95.3624 77.4438 105.441 67.5425 111.556 63.3602L110.991 62.5348L110.426 61.7095C104.102 66.0356 93.8843 76.0964 85.2949 85.419C80.988 90.0935 77.0641 94.6112 74.2118 98.1728C72.7872 99.9516 71.6187 101.506 70.8015 102.729C70.394 103.339 70.0614 103.886 69.8267 104.348C69.6185 104.758 69.3991 105.264 69.3991 105.731H70.3991ZM110.991 62.5348V61.5348H20.6413V62.5348V63.5348H110.991V62.5348ZM20.6413 62.5348L21.6218 62.3387C21.6515 62.4868 21.6087 62.5427 21.649 62.4138C21.6806 62.3125 21.7449 62.1563 21.8572 61.9373C22.0807 61.5014 22.442 60.9169 22.939 60.1923C23.9292 58.7487 25.3929 56.8427 27.1881 54.6249C30.7746 50.1943 35.632 44.5832 40.5388 39.0648C45.4438 33.5485 50.3898 28.1342 54.1492 24.1003C56.0293 22.0829 57.6098 20.4138 58.7385 19.2511C59.304 18.6687 59.7503 18.2192 60.0622 17.9181C60.2198 17.766 60.3326 17.6618 60.4045 17.5998C60.4426 17.5669 60.4532 17.5599 60.4444 17.5662C60.4414 17.5683 60.413 17.5888 60.3671 17.6129C60.3648 17.6141 60.1831 17.7202 59.9238 17.7202V16.7202V15.7202C59.6542 15.7202 59.4576 15.8315 59.4356 15.843C59.3703 15.8774 59.3176 15.9134 59.2858 15.9359C59.2194 15.9831 59.1541 16.0371 59.0988 16.0849C58.9837 16.1841 58.8388 16.3192 58.6729 16.4794C58.3377 16.8031 57.8736 17.2708 57.3035 17.858C56.1613 19.0346 54.5705 20.7147 52.6861 22.7368C48.9163 26.7818 43.9598 32.2076 39.0442 37.7359C34.1304 43.2621 29.249 48.9001 25.6336 53.3666C23.8279 55.5973 22.325 57.5517 21.2897 59.061C20.774 59.8129 20.3578 60.478 20.0775 61.0248C19.9379 61.2971 19.8187 61.5655 19.74 61.8172C19.67 62.0413 19.5901 62.3783 19.6607 62.731L20.6413 62.5348ZM59.9238 16.7202V17.7202H184.973V16.7202V15.7202H59.9238V16.7202ZM184.973 16.7202H183.973C183.973 16.8333 183.902 17.1528 183.594 17.7424C183.304 18.2977 182.863 18.9844 182.276 19.792C181.103 21.4049 179.41 23.4171 177.348 25.6922C173.228 30.2379 167.702 35.762 162.104 41.1136C156.508 46.4631 150.851 51.6275 146.475 55.4516C144.286 57.3648 142.424 58.9358 141.054 60.0251C140.367 60.5713 139.817 60.986 139.417 61.2599C139.215 61.3981 139.069 61.4882 138.974 61.5397C138.925 61.5657 138.907 61.5725 138.912 61.5705C138.916 61.5692 138.935 61.562 138.967 61.5545C138.996 61.5476 139.058 61.5348 139.144 61.5348V62.5348V63.5348C139.355 63.5348 139.531 63.4748 139.62 63.4413C139.726 63.4009 139.83 63.3503 139.922 63.3006C140.108 63.2006 140.32 63.0658 140.547 62.9102C141.005 62.5964 141.599 62.1476 142.299 61.5906C143.704 60.4735 145.592 58.8795 147.791 56.9577C152.192 53.1119 157.87 47.9271 163.486 42.5593C169.099 37.1935 174.663 31.6321 178.829 27.0353C180.91 24.7392 182.659 22.6659 183.893 20.968C184.51 20.1202 185.013 19.3452 185.366 18.6684C185.702 18.0261 185.973 17.3434 185.973 16.7202H184.973ZM139.144 62.5348V61.5348H116.229V62.5348V63.5348H139.144V62.5348ZM116.229 430.361H115.229C115.229 430.302 115.228 430.425 115.018 430.839C114.834 431.201 114.55 431.673 114.163 432.252C113.392 433.406 112.264 434.91 110.855 436.669C108.04 440.184 104.148 444.666 99.8621 449.318C91.2655 458.648 81.1867 468.55 75.0722 472.732L75.6368 473.557L76.2013 474.383C82.5263 470.057 92.7435 459.996 101.333 450.673C105.64 445.999 109.564 441.481 112.416 437.919C113.841 436.141 115.009 434.586 115.826 433.363C116.234 432.753 116.566 432.207 116.801 431.745C117.009 431.334 117.229 430.828 117.229 430.361H116.229ZM75.6368 473.557V474.557H165.332V473.557V472.557H75.6368V473.557ZM165.332 473.557L164.351 473.754C164.32 473.598 164.366 473.537 164.324 473.666C164.292 473.765 164.225 473.921 164.108 474.14C163.875 474.575 163.499 475.159 162.98 475.883C161.945 477.325 160.412 479.23 158.516 481.446C154.729 485.874 149.548 491.481 144.157 496.993C138.766 502.505 133.18 507.905 128.583 511.921C126.282 513.93 124.247 515.578 122.617 516.718C121.801 517.289 121.107 517.718 120.546 518C119.951 518.299 119.624 518.372 119.502 518.372V519.372V520.372C120.117 520.372 120.797 520.112 121.445 519.787C122.125 519.444 122.907 518.956 123.763 518.357C125.479 517.158 127.576 515.456 129.899 513.427C134.55 509.364 140.176 503.924 145.587 498.391C150.999 492.858 156.212 487.216 160.036 482.747C161.945 480.514 163.522 478.559 164.605 477.048C165.145 476.296 165.579 475.63 165.872 475.083C166.017 474.81 166.142 474.541 166.225 474.288C166.299 474.063 166.384 473.721 166.312 473.361L165.332 473.557ZM119.502 519.372V518.372H1V519.372V520.372H119.502V519.372ZM261.032 523.299L261.429 522.381C241.778 513.869 222.117 506.007 203.145 498.159L202.763 499.083L202.381 500.007C221.382 507.867 241.003 515.712 260.634 524.217L261.032 523.299ZM202.763 499.083L203.157 498.164L166.493 482.456L166.099 483.375L165.705 484.294L202.369 500.002L202.763 499.083ZM166.099 483.375V482.375C166.264 482.375 166.618 482.454 166.814 482.818C166.889 482.956 166.905 483.077 166.909 483.141C166.913 483.205 166.905 483.245 166.904 483.248C166.904 483.252 166.913 483.207 166.959 483.101C167.001 483.002 167.064 482.876 167.148 482.723C167.493 482.099 168.094 481.223 168.785 480.288C170.174 478.41 171.773 476.499 172.044 476.228L171.337 475.521L170.63 474.814C170.246 475.198 168.572 477.213 167.177 479.099C166.478 480.045 165.81 481.01 165.398 481.756C165.205 482.106 165.008 482.511 164.938 482.88C164.907 483.046 164.86 483.409 165.055 483.77C165.309 484.239 165.77 484.375 166.099 484.375V483.375ZM171.337 475.521L172.084 476.185C177.326 470.29 182.544 464.423 187.757 459.211L187.05 458.504L186.343 457.797C181.081 463.057 175.823 468.971 170.589 474.856L171.337 475.521ZM187.05 458.504L187.757 459.211L191.03 455.939L190.323 455.232L189.616 454.524L186.343 457.797L187.05 458.504ZM190.323 455.232H191.323V93.9506H190.323H189.323V455.232H190.323ZM190.323 93.9506H191.323C191.323 92.6305 191.994 91.206 193.016 89.7911C194.026 88.3931 195.279 87.1378 196.268 86.1494L195.561 85.4421L194.854 84.7349C193.879 85.71 192.513 87.0726 191.395 88.6199C190.289 90.1502 189.323 91.9981 189.323 93.9506H190.323ZM195.561 85.4421L196.296 86.1205L212.009 69.1037L211.274 68.4253L210.539 67.7469L194.826 84.7637L195.561 85.4421ZM211.274 68.4253L211.981 69.1325C217.194 63.9211 223.064 58.7051 228.961 53.4649L228.296 52.7174L227.632 51.9699C221.745 57.2017 215.829 62.4576 210.567 67.7181L211.274 68.4253ZM228.296 52.7174L229.077 53.3422L231.696 50.0697L230.915 49.4449L230.134 48.8201L227.516 52.0926L228.296 52.7174ZM230.915 49.4449L231.663 50.1094C236.904 44.2143 242.122 38.3467 247.335 33.1353L246.628 32.4281L245.921 31.7209C240.659 36.9813 235.401 42.8947 230.168 48.7804L230.915 49.4449ZM246.628 32.4281L247.335 33.1353C253.236 27.2364 258.43 22.0462 264.264 17.5096L263.651 16.7202L263.037 15.9307C257.087 20.5571 251.805 25.8389 245.921 31.7209L246.628 32.4281ZM263.651 16.7202C264.358 17.4274 264.358 17.4275 264.358 17.4275C264.358 17.4275 264.358 17.4275 264.358 17.4274C264.358 17.4273 264.358 17.4271 264.358 17.4268C264.359 17.4262 264.36 17.4252 264.361 17.4238C264.364 17.421 264.368 17.4167 264.374 17.4109C264.386 17.3994 264.404 17.3818 264.427 17.3588C264.474 17.3126 264.543 17.2444 264.633 17.1574C264.812 16.9834 265.071 16.7346 265.388 16.4378C266.023 15.8429 266.887 15.0602 267.807 14.3006C268.733 13.5357 269.687 12.8183 270.509 12.3368C270.921 12.0952 271.266 11.9332 271.534 11.8482C271.827 11.7556 271.898 11.7959 271.846 11.7785L272.162 10.8298L272.478 9.88107C271.935 9.70005 271.372 9.80173 270.93 9.9417C270.464 10.0894 269.975 10.3314 269.498 10.6113C268.539 11.1729 267.489 11.969 266.533 12.7585C265.571 13.5533 264.674 14.3659 264.021 14.9778C263.694 15.2843 263.426 15.5417 263.239 15.7231C263.146 15.8138 263.073 15.8855 263.022 15.9349C262.997 15.9597 262.978 15.9788 262.965 15.9919C262.958 15.9985 262.953 16.0036 262.95 16.0071C262.948 16.0089 262.946 16.0102 262.945 16.0112C262.945 16.0117 262.945 16.0121 262.944 16.0124C262.944 16.0125 262.944 16.0127 262.944 16.0128C262.944 16.0129 262.944 16.013 263.651 16.7202ZM272.162 10.8298L271.768 11.749C285.478 17.6226 311.722 29.4282 326.161 34.6769L326.503 33.7371L326.844 32.7972C312.476 27.574 286.344 15.8178 272.556 9.91059L272.162 10.8298ZM326.503 33.7371L326.089 34.6475C333.309 37.9282 339.987 40.609 348.025 41.2786L348.108 40.282L348.191 39.2855C340.516 38.6461 334.1 36.0909 326.916 32.8267L326.503 33.7371ZM348.108 40.282L348.042 41.2798C357.998 41.9433 367.281 40.6144 376.535 37.9711L376.261 37.0095L375.986 36.048C366.909 38.6407 357.859 39.9296 348.175 39.2842L348.108 40.282ZM376.261 37.0095L375.554 36.3023L374.899 36.9568L375.606 37.664L376.313 38.3712L376.968 37.7168L376.261 37.0095ZM375.606 37.664L376.053 38.5585C376.358 38.4058 376.588 38.3109 376.746 38.2628C376.783 38.2515 376.812 38.2441 376.834 38.2394C376.844 38.2371 376.852 38.2356 376.858 38.2347C376.864 38.2338 376.866 38.2335 376.866 38.2335C376.866 38.2335 376.863 38.2339 376.856 38.2341C376.849 38.2342 376.838 38.2342 376.823 38.2331C376.794 38.2311 376.744 38.2247 376.681 38.2037C376.537 38.1557 376.369 38.0441 376.262 37.853C376.167 37.6847 376.171 37.5447 376.173 37.5133C376.175 37.48 376.179 37.4919 376.154 37.5656C376.13 37.6348 376.089 37.735 376.021 37.8712L376.915 38.3186L377.81 38.7659C377.987 38.4119 378.147 38.0157 378.169 37.6307C378.181 37.4255 378.159 37.1473 378.006 36.8743C377.84 36.5783 377.58 36.3952 377.313 36.3063C376.872 36.1592 376.423 36.2707 376.164 36.3494C375.851 36.4445 375.508 36.595 375.159 36.7695L375.606 37.664ZM376.915 38.3186L376.021 37.8712C375.44 39.0328 374.878 39.5954 374.244 40.2293L374.951 40.9365L375.658 41.6437C376.333 40.9686 377.081 40.2223 377.81 38.7659L376.915 38.3186ZM374.951 40.9365L374.119 40.3817C370.254 46.1779 365.74 50.6939 361.15 55.2826L361.857 55.9899L362.564 56.6971C367.14 52.1229 371.792 47.476 375.783 41.4913L374.951 40.9365ZM361.857 55.9899L361.15 55.2826C355.255 61.1754 349.381 67.0476 342.856 72.9178L343.525 73.6612L344.194 74.4046C350.764 68.4939 356.674 62.5852 362.564 56.6971L361.857 55.9899ZM343.525 73.6612L342.856 72.9178L336.309 78.8083L336.978 79.5517L337.647 80.2951L344.194 74.4046L343.525 73.6612ZM336.978 79.5517L336.423 78.7196C335.46 79.3619 334.507 80.1097 333.786 80.614C333.004 81.1615 332.276 81.5917 331.424 81.8754L331.74 82.8242L332.057 83.7729C333.169 83.4021 334.078 82.8506 334.933 82.2527C335.849 81.6117 336.532 81.0505 337.533 80.3838L336.978 79.5517ZM331.74 82.8242L331.404 81.8824C322.387 85.1018 310.742 86.4002 301.036 85.7534L300.969 86.7511L300.903 87.7489C310.838 88.411 322.762 87.0914 332.077 83.7659L331.74 82.8242ZM300.969 86.7511H299.969V362.293H300.969H301.969V86.7511H300.969ZM300.969 362.293H299.969C299.969 362.618 299.969 370.783 299.643 378.861C299.479 382.904 299.235 386.901 298.872 389.876C298.689 391.371 298.482 392.563 298.253 393.364C298.137 393.772 298.032 394.015 297.958 394.136C297.853 394.308 297.959 394.018 298.35 394.018V395.018V396.018C299.069 396.018 299.482 395.478 299.664 395.18C299.878 394.83 300.042 394.383 300.176 393.913C300.449 392.958 300.671 391.64 300.857 390.118C301.23 387.06 301.477 382.997 301.641 378.941C301.969 370.821 301.969 362.623 301.969 362.293H300.969ZM298.35 395.018V394.018C298.627 394.018 298.786 394.16 298.818 394.192C298.848 394.222 298.831 394.215 298.783 394.12C298.689 393.934 298.577 393.614 298.46 393.155C298.229 392.253 298.031 391.033 297.868 389.814C297.707 388.603 297.585 387.43 297.504 386.633C297.464 386.242 297.431 385.924 297.409 385.747C297.403 385.703 297.396 385.653 297.389 385.608C297.385 385.587 297.378 385.548 297.366 385.503C297.361 385.483 297.349 385.438 297.328 385.385C297.326 385.379 297.259 385.183 297.078 385.013C296.97 384.912 296.712 384.72 296.33 384.744C295.947 384.768 295.714 384.992 295.62 385.107C295.461 385.301 295.42 385.505 295.419 385.511C295.396 385.604 295.391 385.684 295.39 385.698C295.387 385.753 295.386 385.811 295.386 385.855H296.386H297.386C297.386 385.817 297.387 385.817 297.386 385.835C297.385 385.841 297.384 385.856 297.382 385.875C297.38 385.889 297.375 385.93 297.362 385.982C297.362 385.984 297.322 386.186 297.164 386.378C297.07 386.492 296.838 386.716 296.456 386.74C296.074 386.764 295.817 386.572 295.71 386.472C295.53 386.303 295.464 386.109 295.463 386.107C295.444 386.058 295.434 386.018 295.43 386.004C295.425 385.985 295.422 385.971 295.421 385.964C295.419 385.957 295.418 385.952 295.418 385.951C295.418 385.95 295.42 385.963 295.425 385.999C295.443 386.145 295.472 386.429 295.514 386.837C295.596 387.634 295.72 388.834 295.886 390.078C296.051 391.313 296.261 392.629 296.522 393.65C296.65 394.152 296.805 394.64 296.997 395.021C297.092 395.21 297.223 395.427 297.407 395.609C297.592 395.794 297.91 396.018 298.35 396.018V395.018ZM296.386 385.855L297.383 385.772C296.732 377.966 296.731 370.154 296.731 362.293H295.731H294.731C294.731 370.14 294.731 378.036 295.39 385.938L296.386 385.855ZM295.731 362.293H296.731V86.0966H295.731H294.731V362.293H295.731ZM295.731 86.0966L296.048 85.1479C290.162 83.1869 284.391 80.6138 279.06 78.6153L278.709 79.5517L278.358 80.488C283.502 82.4166 289.516 85.0795 295.415 87.0453L295.731 86.0966ZM278.709 79.5517L279.071 78.6196C267.305 74.0452 250.297 66.8521 236.547 60.9611L236.153 61.8803L235.759 62.7995C249.507 68.6895 266.544 75.8953 278.347 80.4837L278.709 79.5517ZM236.153 61.8803H235.153V445.414H236.153H237.153V61.8803H236.153ZM236.153 445.414L235.204 445.098L234.55 447.061L235.498 447.378L236.447 447.694L237.102 445.73L236.153 445.414ZM235.498 447.378L235.127 448.306C251.497 454.852 267.849 461.391 284.199 468.582L284.601 467.667L285.004 466.752C268.618 459.544 252.235 452.993 235.87 446.449L235.498 447.378ZM284.601 467.667L284.208 468.586L316.288 482.331L316.682 481.411L317.076 480.492L284.995 466.748L284.601 467.667ZM316.682 481.411L317.395 482.112L355.368 443.497L354.655 442.796L353.942 442.095L315.969 480.71L316.682 481.411ZM354.655 442.796L353.948 442.089C353.946 442.092 353.879 442.156 353.826 442.225C353.815 442.24 353.792 442.27 353.766 442.311C353.758 442.324 353.676 442.451 353.638 442.633C353.62 442.751 353.642 443.064 353.705 443.249C353.84 443.468 354.212 443.753 354.416 443.818C354.549 443.836 354.763 443.828 354.843 443.813C354.892 443.8 354.974 443.772 355.006 443.759C355.107 443.717 355.181 443.665 355.183 443.663C355.205 443.648 355.223 443.635 355.232 443.628C355.284 443.589 355.364 443.521 355.429 443.464C355.567 443.346 355.861 443.091 356.166 442.829C356.817 442.269 357.746 441.482 358.713 440.717C359.689 439.945 360.667 439.224 361.422 438.78C361.812 438.551 362.071 438.44 362.206 438.405C362.276 438.387 362.224 438.414 362.106 438.39C361.938 438.355 361.73 438.233 361.617 438.008L362.512 437.56L363.406 437.113C363.211 436.723 362.865 436.505 362.511 436.431C362.206 436.368 361.918 436.415 361.713 436.467C361.295 436.573 360.838 436.804 360.409 437.056C359.528 437.573 358.46 438.366 357.472 439.149C356.474 439.938 355.521 440.746 354.863 441.312C354.513 441.612 354.296 441.802 354.127 441.946C354.039 442.022 354.016 442.04 354.025 442.034C354.029 442.031 354.042 442.021 354.06 442.008C354.069 442.002 354.085 441.991 354.107 441.979C354.123 441.969 354.168 441.943 354.229 441.917C354.261 441.904 354.342 441.877 354.392 441.864C354.47 441.849 354.684 441.841 354.817 441.859C355.022 441.924 355.393 442.208 355.528 442.427C355.591 442.612 355.613 442.925 355.595 443.042C355.557 443.225 355.475 443.35 355.468 443.362C355.443 443.402 355.421 443.432 355.411 443.445C355.366 443.502 355.324 443.542 355.362 443.503L354.655 442.796ZM362.512 437.56L362.065 438.455C361.839 438.342 361.717 438.134 361.682 437.966C361.658 437.847 361.685 437.795 361.667 437.866C361.632 438 361.521 438.259 361.292 438.649C360.848 439.404 360.127 440.382 359.354 441.357C358.589 442.323 357.801 443.253 357.242 443.903C356.98 444.208 356.725 444.502 356.606 444.64C356.55 444.705 356.482 444.785 356.442 444.837C356.435 444.847 356.422 444.864 356.407 444.886C356.406 444.888 356.353 444.962 356.311 445.063C356.298 445.095 356.271 445.177 356.258 445.227C356.243 445.306 356.234 445.52 356.252 445.653C356.318 445.858 356.602 446.23 356.821 446.364C357.006 446.427 357.319 446.449 357.436 446.432C357.619 446.394 357.746 446.311 357.759 446.303C357.8 446.278 357.83 446.255 357.845 446.244C357.914 446.191 357.978 446.124 357.981 446.121L357.274 445.414L356.567 444.707C356.529 444.745 356.568 444.703 356.626 444.658C356.639 444.648 356.668 444.626 356.708 444.601C356.72 444.594 356.846 444.512 357.028 444.474C357.146 444.457 357.458 444.479 357.643 444.541C357.862 444.676 358.146 445.048 358.212 445.252C358.23 445.385 358.221 445.599 358.206 445.678C358.193 445.727 358.166 445.809 358.153 445.841C358.127 445.902 358.101 445.947 358.091 445.963C358.079 445.984 358.068 446 358.062 446.01C358.049 446.028 358.039 446.041 358.036 446.045C358.03 446.054 358.048 446.031 358.124 445.943C358.268 445.774 358.458 445.556 358.759 445.207C359.325 444.549 360.133 443.596 360.922 442.599C361.705 441.611 362.498 440.543 363.016 439.662C363.267 439.234 363.498 438.777 363.605 438.359C363.657 438.154 363.704 437.866 363.641 437.561C363.567 437.206 363.348 436.86 362.959 436.666L362.512 437.56ZM357.274 445.414L356.506 444.774C340.165 464.376 322.514 482.676 304.832 501.006L305.552 501.701L306.272 502.395C323.945 484.073 341.647 465.722 358.042 446.054L357.274 445.414ZM305.552 501.701L304.812 501.028C298.303 508.186 291.793 514.044 284.584 520.595L285.256 521.336L285.929 522.076C293.123 515.538 299.707 509.615 306.292 502.373L305.552 501.701ZM285.256 521.336L284.587 520.592L278.04 526.483L278.709 527.226L279.378 527.969L285.925 522.079L285.256 521.336ZM278.709 527.226L278.002 526.519C276.802 527.719 275.732 528.189 274.781 528.189V529.189V530.189C276.449 530.189 277.998 529.351 279.416 527.933L278.709 527.226ZM274.781 529.189L275.175 528.27L261.426 522.38L261.032 523.299L260.638 524.218L274.387 530.109L274.781 529.189ZM409.554 528.535L410.108 527.703C409.237 527.122 408.521 526.417 402.982 520.797C397.498 515.233 387.348 504.923 367.704 485.286L366.997 485.993L366.29 486.7C385.929 506.332 396.075 516.639 401.558 522.201C406.985 527.708 407.906 528.638 408.999 529.367L409.554 528.535ZM366.997 485.993L367.704 485.286C367.901 485.482 367.959 485.707 367.973 485.842C367.987 485.97 367.969 486.064 367.962 486.096C367.947 486.161 367.933 486.176 367.963 486.116C368.016 486.009 368.129 485.822 368.32 485.545C368.694 485.002 369.284 484.233 370.047 483.287C371.568 481.401 373.726 478.877 376.096 476.181C380.838 470.787 386.386 464.752 389.31 461.829L388.603 461.122L387.896 460.415C384.927 463.383 379.345 469.456 374.594 474.861C372.217 477.564 370.038 480.113 368.49 482.031C367.719 482.987 367.091 483.803 366.673 484.41C366.467 484.708 366.29 484.988 366.172 485.225C366.117 485.337 366.047 485.493 366.009 485.665C365.99 485.75 365.87 486.28 366.29 486.7L366.997 485.993ZM388.603 461.122H389.603V91.9871H388.603H387.603V461.122H388.603ZM388.603 91.9871H389.603C389.603 91.9093 389.658 91.6356 389.93 91.0973C390.185 90.5942 390.574 89.9661 391.095 89.2212C392.135 87.7338 393.644 85.8617 395.496 83.7246C399.198 79.455 404.212 74.197 409.442 68.9689C414.67 63.7428 420.101 58.5587 424.63 54.4389C429.196 50.2859 432.759 47.2954 434.292 46.3755L433.778 45.518L433.263 44.6604C431.523 45.704 427.803 48.8494 423.284 52.9594C418.729 57.1026 413.276 62.3086 408.028 67.5544C402.783 72.7983 397.731 78.0939 393.985 82.4145C392.114 84.5726 390.554 86.5048 389.456 88.0751C388.908 88.859 388.46 89.5731 388.146 90.1937C387.85 90.7791 387.603 91.4103 387.603 91.9871H388.603ZM433.778 45.518L434.569 46.1295C440.079 39.0011 450.338 28.7405 459.497 20.3198C464.07 16.1154 468.35 12.3874 471.602 9.75617C473.231 8.43838 474.587 7.40826 475.585 6.73262C476.087 6.39249 476.474 6.1597 476.746 6.02503C476.884 5.95677 476.962 5.92896 476.992 5.9206C477.06 5.90171 476.905 5.96547 476.672 5.88804L476.989 4.93933L477.305 3.99062C476.95 3.87227 476.617 3.94882 476.455 3.99396C476.255 4.04964 476.051 4.13711 475.858 4.23295C475.467 4.42649 474.995 4.71716 474.464 5.07627C473.396 5.79909 471.989 6.87051 470.344 8.20137C467.049 10.8674 462.736 14.6252 458.144 18.8474C448.971 27.28 438.606 37.6359 432.987 44.9064L433.778 45.518ZM476.989 4.93933L476.6 5.8608L585.282 51.6754L585.67 50.7539L586.059 49.8325L477.377 4.01786L476.989 4.93933ZM585.67 50.7539L584.881 50.1399C575.737 61.8922 567.26 71.6685 556.178 82.0958L556.863 82.8242L557.548 83.5525C568.726 73.036 577.271 63.1775 586.459 51.368L585.67 50.7539ZM556.863 82.8242H555.863V461.122H556.863H557.863V82.8242H556.863ZM556.863 461.122L556.156 461.829L577.761 483.428L578.468 482.72L579.175 482.013L557.57 460.415L556.863 461.122ZM578.468 482.72L577.611 483.235C577.494 483.041 577.539 482.899 577.527 482.969C577.517 483.025 577.481 483.15 577.381 483.36C577.184 483.776 576.821 484.355 576.282 485.092C575.213 486.557 573.559 488.502 571.49 490.769C567.357 495.297 561.646 501.028 555.841 506.626C550.039 512.222 544.157 517.674 539.688 521.641C537.452 523.626 535.579 525.232 534.251 526.296C533.583 526.832 533.074 527.213 532.734 527.436C532.651 527.491 532.584 527.532 532.532 527.561C532.507 527.576 532.487 527.586 532.472 527.594C532.457 527.601 532.451 527.604 532.452 527.604C532.452 527.603 532.468 527.597 532.496 527.589C532.522 527.582 532.581 527.568 532.664 527.564C532.822 527.558 533.292 527.606 533.533 528.088L532.639 528.535L531.744 528.982C532.006 529.505 532.52 529.571 532.742 529.563C532.952 529.555 533.126 529.489 533.215 529.452C533.414 529.37 533.63 529.241 533.832 529.108C534.254 528.831 534.822 528.401 535.502 527.857C536.869 526.761 538.772 525.129 541.016 523.137C545.509 519.148 551.411 513.677 557.23 508.065C563.046 502.456 568.793 496.691 572.967 492.118C575.05 489.835 576.763 487.826 577.898 486.272C578.461 485.5 578.91 484.802 579.188 484.217C579.326 483.927 579.443 483.62 579.496 483.317C579.547 483.03 579.565 482.605 579.326 482.206L578.468 482.72ZM532.639 528.535L533.193 527.703C532.312 527.116 531.407 526.381 525.817 520.792C520.255 515.233 510.111 504.928 490.796 485.292L490.083 485.993L489.37 486.694C508.682 506.327 518.834 516.639 524.403 522.206C529.942 527.744 531.001 528.645 532.084 529.367L532.639 528.535ZM490.083 485.993L490.53 485.098C490.695 485.181 490.832 485.341 490.885 485.529C490.925 485.673 490.894 485.752 490.907 485.699C490.934 485.59 491.045 485.325 491.346 484.852C491.929 483.935 493.013 482.55 494.689 480.588C498.029 476.68 503.578 470.643 511.767 461.802L511.033 461.122L510.3 460.443C502.121 469.273 496.54 475.343 493.169 479.289C491.49 481.254 490.324 482.732 489.658 483.779C489.335 484.288 489.073 484.78 488.964 485.223C488.909 485.447 488.87 485.75 488.96 486.07C489.062 486.435 489.307 486.723 489.636 486.887L490.083 485.993ZM511.033 461.122H512.033V243.83H511.033H510.033V461.122H511.033ZM511.033 243.83L510.274 243.179C504.402 250.027 495.256 259.824 487.009 267.905C482.885 271.946 479 275.544 475.871 278.125C474.305 279.417 472.947 280.439 471.856 281.132C471.309 281.478 470.849 281.73 470.476 281.893C470.086 282.063 469.869 282.099 469.787 282.099V283.099V284.099C470.277 284.099 470.792 283.937 471.275 283.726C471.776 283.508 472.332 283.198 472.927 282.82C474.12 282.063 475.55 280.983 477.144 279.668C480.337 277.034 484.268 273.391 488.409 269.333C496.694 261.215 505.88 251.377 511.793 244.481L511.033 243.83ZM469.787 283.099V282.099H434.432V283.099V284.099H469.787V283.099ZM434.432 283.099H433.432V461.122H434.432H435.432V283.099H434.432ZM434.432 461.122L433.725 461.829L455.331 483.428L456.038 482.72L456.745 482.013L435.139 460.415L434.432 461.122ZM456.038 482.72L455.331 483.428C455.056 483.153 455.039 482.829 455.046 482.696C455.053 482.558 455.088 482.461 455.099 482.432C455.123 482.368 455.143 482.343 455.12 482.379C455.083 482.438 455.001 482.552 454.856 482.733C454.575 483.086 454.131 483.601 453.538 484.263C452.355 485.582 450.622 487.437 448.512 489.649C444.293 494.07 438.591 499.893 432.825 505.657C427.059 511.421 421.237 517.119 416.778 521.29C414.546 523.378 412.668 525.073 411.314 526.201C410.632 526.768 410.108 527.171 409.748 527.408C409.561 527.532 409.464 527.58 409.436 527.591C409.418 527.598 409.478 527.57 409.587 527.563C409.694 527.557 409.999 527.566 410.26 527.828L409.554 528.535L408.847 529.242C409.149 529.545 409.517 529.571 409.707 529.56C409.9 529.548 410.065 529.493 410.172 529.45C410.394 529.362 410.628 529.224 410.849 529.078C411.304 528.778 411.898 528.317 412.594 527.738C413.994 526.572 415.906 524.846 418.144 522.751C422.626 518.557 428.466 512.842 434.239 507.071C440.013 501.299 445.727 495.464 449.959 491.029C452.073 488.813 453.823 486.94 455.027 485.598C455.626 484.929 456.101 484.38 456.42 483.981C456.575 483.786 456.714 483.602 456.812 483.447C456.856 483.376 456.923 483.265 456.971 483.136C456.994 483.076 457.036 482.951 457.044 482.792C457.051 482.638 457.03 482.298 456.745 482.013L456.038 482.72ZM434.432 275.9L435.21 276.529C440.731 269.711 450.349 259.93 459.012 251.842C463.34 247.801 467.413 244.198 470.601 241.61C472.197 240.314 473.556 239.286 474.605 238.586C475.131 238.235 475.56 237.98 475.89 237.816C476.263 237.632 476.38 237.63 476.334 237.63V236.63V235.63C475.878 235.63 475.397 235.828 475.002 236.024C474.564 236.241 474.056 236.548 473.495 236.922C472.371 237.672 470.957 238.745 469.341 240.057C466.104 242.685 461.994 246.322 457.647 250.38C448.96 258.491 439.264 268.345 433.655 275.271L434.432 275.9ZM476.334 236.63V237.63H511.033V236.63V235.63H476.334V236.63ZM511.033 236.63H512.033V84.7876H511.033H510.033V236.63H511.033ZM511.033 84.7876L511.418 83.8645C456.427 60.9591 445.921 57.0196 434.813 52.4472L434.432 53.3719L434.052 54.2966C445.204 58.8871 455.649 62.8015 510.649 85.7108L511.033 84.7876ZM434.432 53.3719H433.432V275.9H434.432H435.432V53.3719H434.432ZM675.549 292.262L676.242 292.984C684.409 285.146 700.27 270.924 715.416 257.421C730.545 243.931 744.966 231.154 750.215 226.234L749.531 225.504L748.848 224.774C743.622 229.672 729.235 242.419 714.085 255.928C698.95 269.422 683.057 283.671 674.857 291.541L675.549 292.262ZM749.531 225.504H750.531C750.531 216.996 750.531 185.576 750.286 156.119C750.163 141.392 749.979 127.149 749.703 116.505C749.564 111.184 749.403 106.753 749.214 103.606C749.12 102.035 749.017 100.768 748.906 99.8639C748.85 99.4157 748.789 99.0307 748.719 98.7338C748.685 98.5878 748.641 98.4323 748.582 98.29C748.546 98.2022 748.423 97.9004 748.122 97.6999L747.567 98.5321L747.013 99.3642C746.872 99.2705 746.799 99.1652 746.775 99.1274C746.759 99.1032 746.749 99.0841 746.743 99.0729C746.737 99.0613 746.734 99.0541 746.734 99.0525C746.733 99.0503 746.737 99.0601 746.745 99.0863C746.752 99.1116 746.762 99.1465 746.772 99.1925C746.818 99.3846 746.868 99.686 746.921 100.11C747.025 100.95 747.124 102.167 747.217 103.726C747.404 106.838 747.565 111.242 747.703 116.557C747.979 127.183 748.163 141.411 748.286 156.136C748.531 185.584 748.531 216.996 748.531 225.504H749.531ZM747.567 98.5321L748.099 97.6849L681.318 55.7973L680.787 56.6444L680.256 57.4915L747.036 99.3792L747.567 98.5321ZM680.787 56.6444L679.893 56.1971C676.584 62.8132 674.549 69.5178 674.549 74.9702H675.549H676.549C676.549 69.9508 678.443 63.5655 681.681 57.0917L680.787 56.6444ZM675.549 74.9702H674.549V292.262H675.549H676.549V74.9702H675.549ZM608.114 485.993L608.821 485.286C609.018 485.482 609.076 485.707 609.09 485.842C609.104 485.97 609.086 486.064 609.078 486.096C609.064 486.161 609.05 486.176 609.08 486.116C609.133 486.009 609.245 485.822 609.436 485.545C609.811 485.002 610.401 484.233 611.164 483.287C612.685 481.401 614.843 478.877 617.213 476.181C621.955 470.787 627.503 464.752 630.427 461.829L629.72 461.122L629.013 460.415C626.044 463.383 620.462 469.456 615.711 474.861C613.334 477.564 611.155 480.113 609.607 482.031C608.836 482.987 608.208 483.803 607.79 484.41C607.584 484.708 607.407 484.988 607.289 485.225C607.233 485.337 607.164 485.493 607.126 485.665C607.107 485.75 606.987 486.28 607.407 486.7L608.114 485.993ZM629.72 461.122H630.72V68.4253H629.72H628.72V461.122H629.72ZM629.72 68.4253H630.72C630.72 48.6601 626.765 29.5806 621.52 9.91751L620.554 10.1753L619.588 10.433C624.818 30.0396 628.72 48.9208 628.72 68.4253H629.72ZM620.554 10.1753L621.519 9.91206C621.041 8.16215 620.911 6.90636 620.987 6.1299C621.024 5.73877 621.107 5.55248 621.149 5.48854C621.167 5.4601 621.124 5.52087 621.04 5.52731C621.01 5.52959 621.106 5.5145 621.359 5.6731C621.602 5.82517 621.917 6.09278 622.293 6.51446C623.042 7.35633 623.938 8.70449 624.897 10.6226L625.792 10.1753L626.686 9.72792C625.681 7.71907 624.694 6.20382 623.787 5.18447C623.333 4.67555 622.876 4.2631 622.421 3.97799C621.976 3.6994 621.448 3.49001 620.886 3.5332C620.271 3.58055 619.787 3.91743 619.476 4.39264C619.188 4.83236 619.05 5.37726 618.996 5.93719C618.887 7.06284 619.084 8.58865 619.589 10.4385L620.554 10.1753ZM625.792 10.1753L624.892 10.6128C636.632 34.7356 643.805 62.7697 645.784 69.3672L646.742 69.0798L647.7 68.7924C645.752 62.2999 638.521 34.0475 626.691 9.73767L625.792 10.1753ZM646.742 69.0798L647.616 69.5656C650.884 63.6847 671.068 28.5661 702.888 10.3891L702.392 9.52077L701.896 8.65246C669.555 27.1272 649.147 62.694 645.868 68.594L646.742 69.0798ZM702.392 9.52077L702.866 10.4013C707.092 8.12698 710.456 6.69198 712.975 5.9838C714.235 5.62959 715.247 5.4675 716.03 5.45861C716.822 5.44961 717.291 5.59816 717.551 5.77146L718.105 4.93933L718.66 4.1072C717.938 3.626 717.016 3.44728 716.007 3.45874C714.989 3.4703 713.792 3.67636 712.433 4.05845C709.715 4.82289 706.205 6.33312 701.918 8.64023L702.392 9.52077ZM718.105 4.93933L717.572 5.7849C742.518 21.5357 775.165 40.4594 794.806 53.5495L795.361 52.7174L795.916 51.8853C776.275 38.7956 743.45 19.7587 718.639 4.09376L718.105 4.93933ZM795.361 52.7174L794.654 53.4246C794.513 53.2835 794.462 53.1411 794.46 53.1355C794.447 53.103 794.445 53.0886 794.449 53.1064C794.457 53.14 794.472 53.2138 794.489 53.3422C794.523 53.5938 794.558 53.9697 794.594 54.4737C794.664 55.4769 794.73 56.9228 794.791 58.7563C794.914 62.42 795.016 67.5917 795.098 73.7767C795.261 86.1448 795.343 102.543 795.343 118.985C795.343 135.427 795.261 151.907 795.098 164.439C795.016 170.706 794.914 175.98 794.791 179.767C794.73 181.662 794.664 183.176 794.593 184.252C794.558 184.792 794.522 185.21 794.487 185.506C794.469 185.655 794.453 185.76 794.44 185.829C794.421 185.927 794.42 185.879 794.467 185.787L795.361 186.234L796.255 186.682C796.342 186.508 796.383 186.316 796.403 186.21C796.429 186.075 796.452 185.916 796.473 185.743C796.514 185.395 796.553 184.937 796.589 184.383C796.662 183.273 796.729 181.733 796.79 179.832C796.913 176.025 797.016 170.736 797.097 164.465C797.261 151.921 797.343 135.432 797.343 118.985C797.343 102.538 797.261 86.1303 797.097 73.7503C797.016 67.5613 796.913 62.3736 796.79 58.6895C796.729 56.8492 796.662 55.3741 796.589 54.3339C796.552 53.8162 796.514 53.3899 796.471 53.0741C796.45 52.9188 796.425 52.7677 796.394 52.6371C796.378 52.5728 796.356 52.4914 796.323 52.4074C796.301 52.3503 796.23 52.1717 796.068 52.0102L795.361 52.7174ZM795.361 186.234L794.467 185.787C793.216 188.287 790.749 191.644 787.078 195.855C783.42 200.05 778.612 205.041 772.729 210.8C760.963 222.316 744.939 236.865 725.3 254.207L725.962 254.956L726.624 255.706C746.268 238.36 762.324 223.783 774.128 212.229C780.03 206.452 784.879 201.42 788.586 197.169C792.28 192.932 794.887 189.418 796.255 186.682L795.361 186.234ZM725.962 254.956L725.475 255.83L771.305 281.355L771.792 280.482L772.278 279.608L726.449 254.083L725.962 254.956ZM771.792 280.482L771.298 281.351C783.503 288.276 791.041 289.592 798.414 286.817C802.032 285.455 805.543 283.132 809.494 280.178C813.521 277.167 817.846 273.627 823.451 269.506L822.859 268.701L822.267 267.895C816.742 271.956 812.146 275.697 808.296 278.576C804.37 281.512 801.048 283.689 797.709 284.945C791.17 287.406 784.304 286.431 772.285 279.612L771.792 280.482ZM822.859 268.701L822.152 267.993C822.132 268.013 822.068 268.077 822.011 268.155C821.994 268.179 821.963 268.222 821.932 268.28C821.911 268.32 821.838 268.458 821.818 268.652C821.793 268.889 821.852 269.328 822.273 269.599C822.579 269.795 822.878 269.758 822.941 269.75C823.112 269.729 823.241 269.665 823.251 269.66C823.292 269.641 823.326 269.622 823.347 269.611C823.389 269.587 823.431 269.56 823.464 269.539C823.592 269.456 823.807 269.306 824.039 269.146C824.53 268.809 825.193 268.362 825.804 268.018C826.112 267.845 826.378 267.714 826.586 267.636C826.847 267.539 826.84 267.592 826.696 267.561C826.577 267.534 826.393 267.451 826.264 267.256C826.15 267.084 826.156 266.939 826.156 266.93C826.157 266.919 826.155 266.966 826.112 267.093C826.071 267.214 826.002 267.381 825.893 267.599L826.787 268.046L827.681 268.493C827.938 267.981 828.134 267.474 828.154 267.017C828.165 266.774 828.13 266.452 827.932 266.152C827.719 265.831 827.407 265.669 827.123 265.607C826.652 265.504 826.175 265.654 825.884 265.764C825.539 265.893 825.171 266.079 824.824 266.275C824.126 266.667 823.397 267.16 822.906 267.498C822.647 267.676 822.474 267.797 822.377 267.86C822.354 267.875 822.349 267.877 822.357 267.873C822.359 267.871 822.379 267.86 822.409 267.846C822.424 267.839 822.451 267.827 822.488 267.814C822.517 267.804 822.592 267.778 822.693 267.766C822.752 267.758 823.049 267.721 823.354 267.916C823.774 268.186 823.832 268.624 823.807 268.859C823.787 269.051 823.716 269.186 823.696 269.222C823.667 269.277 823.639 269.316 823.626 269.335C823.582 269.395 823.545 269.429 823.566 269.408L822.859 268.701ZM826.787 268.046L825.93 267.531C823.039 272.347 819.334 276.703 814.599 281.762C809.893 286.791 804.11 292.576 797.242 300.096L797.98 300.771L798.718 301.445C805.599 293.912 811.273 288.243 816.06 283.128C820.819 278.043 824.642 273.563 827.644 268.561L826.787 268.046ZM797.98 300.771H796.98V461.777H797.98H798.98V300.771H797.98ZM797.98 461.777L797.273 462.484L818.224 483.428L818.931 482.72L819.638 482.013L798.687 461.069L797.98 461.777ZM818.931 482.72L818.224 483.428C818.129 483.333 818.078 483.227 818.055 483.145C818.034 483.069 818.037 483.021 818.037 483.021C818.037 483.02 818.036 483.044 818.021 483.098C818.006 483.152 817.982 483.223 817.944 483.314C817.787 483.695 817.468 484.251 816.967 484.983C815.975 486.432 814.395 488.392 812.387 490.694C808.379 495.291 802.751 501.162 796.951 506.879C791.15 512.596 785.195 518.14 780.536 522.086C778.202 524.063 776.217 525.618 774.75 526.592C774.009 527.084 773.445 527.398 773.059 527.551C772.967 527.588 772.894 527.612 772.839 527.626C772.812 527.633 772.792 527.638 772.777 527.64C772.763 527.643 772.756 527.643 772.757 527.643C772.758 527.643 772.768 527.642 772.787 527.644C772.806 527.646 772.836 527.65 772.874 527.661C772.954 527.683 773.059 527.733 773.153 527.828L772.446 528.535L771.739 529.242C772.104 529.606 772.564 529.659 772.878 529.639C773.194 529.62 773.511 529.524 773.798 529.41C774.379 529.179 775.08 528.774 775.856 528.258C777.422 527.218 779.478 525.603 781.829 523.612C786.54 519.622 792.534 514.04 798.354 508.303C804.175 502.567 809.841 496.657 813.894 492.009C815.917 489.689 817.559 487.66 818.618 486.113C819.142 485.346 819.556 484.653 819.793 484.076C819.911 483.792 820.011 483.475 820.033 483.158C820.054 482.842 820.004 482.379 819.638 482.013L818.931 482.72ZM772.446 528.535L773.153 527.828L730.597 485.286L729.89 485.993L729.183 486.7L771.739 529.242L772.446 528.535ZM729.89 485.993L730.597 485.286C730.773 485.462 730.737 485.64 730.745 485.572C730.753 485.499 730.798 485.329 730.939 485.04C731.216 484.47 731.74 483.688 732.491 482.72C733.982 480.799 736.223 478.335 738.716 475.72C743.651 470.544 749.617 464.74 752.243 461.786L751.496 461.122L750.748 460.458C748.137 463.394 742.317 469.044 737.268 474.34C734.77 476.961 732.469 479.487 730.911 481.494C730.138 482.49 729.511 483.404 729.141 484.164C728.958 484.54 728.805 484.942 728.758 485.337C728.711 485.737 728.762 486.279 729.183 486.7L729.89 485.993ZM751.496 461.122H752.496V330.878H751.496H750.496V461.122H751.496ZM751.496 330.878L751.338 329.89C747.281 330.539 744.114 330.809 740.761 330.406C737.406 330.003 733.803 328.918 728.9 326.771C719.051 322.458 704.224 313.988 676.029 298.584L675.549 299.462L675.07 300.339C703.18 315.697 718.142 324.244 728.098 328.603C733.098 330.792 736.901 331.957 740.522 332.392C744.146 332.828 747.527 332.525 751.654 331.865L751.496 330.878ZM675.549 299.462H674.549V461.122H675.549H676.549V299.462H675.549ZM675.549 461.122L674.842 461.829L696.448 483.428L697.155 482.72L697.862 482.013L676.256 460.415L675.549 461.122ZM697.155 482.72L696.448 483.428C696.173 483.153 696.156 482.828 696.163 482.696C696.169 482.558 696.205 482.461 696.216 482.432C696.24 482.368 696.26 482.343 696.237 482.379C696.2 482.438 696.118 482.552 695.973 482.733C695.692 483.086 695.248 483.601 694.655 484.263C693.472 485.582 691.739 487.437 689.628 489.649C685.41 494.07 679.708 499.893 673.942 505.657C668.176 511.421 662.354 517.119 657.895 521.29C655.663 523.378 653.785 525.073 652.431 526.201C651.749 526.768 651.225 527.171 650.865 527.408C650.678 527.532 650.581 527.58 650.553 527.591C650.535 527.598 650.595 527.57 650.704 527.563C650.811 527.557 651.116 527.566 651.377 527.828L650.67 528.535L649.963 529.242C650.266 529.545 650.634 529.571 650.824 529.56C651.017 529.548 651.182 529.493 651.289 529.45C651.511 529.362 651.745 529.224 651.966 529.078C652.421 528.778 653.015 528.317 653.71 527.738C655.11 526.572 657.023 524.846 659.261 522.751C663.743 518.557 669.583 512.842 675.356 507.071C681.13 501.299 686.844 495.464 691.075 491.029C693.19 488.813 694.94 486.94 696.144 485.598C696.743 484.929 697.218 484.38 697.537 483.981C697.692 483.786 697.831 483.602 697.929 483.447C697.973 483.376 698.039 483.265 698.088 483.136C698.111 483.076 698.153 482.951 698.16 482.792C698.168 482.638 698.147 482.298 697.862 482.013L697.155 482.72ZM650.67 528.535L651.225 527.703C650.354 527.122 649.638 526.417 644.099 520.797C638.615 515.233 628.465 504.923 608.821 485.286L608.114 485.993L607.407 486.7C627.046 506.332 637.192 516.639 642.675 522.201C648.102 527.708 649.023 528.638 650.116 529.367L650.67 528.535ZM958.414 528.535L958.806 527.615C914.941 508.962 909.696 506.832 904.45 504.701C899.221 502.578 893.99 500.454 850.124 481.8L849.733 482.72L849.341 483.641C893.206 502.293 898.451 504.424 903.697 506.554C908.926 508.678 914.157 510.802 958.023 529.455L958.414 528.535ZM849.733 482.72V481.72C849.862 481.72 850.096 481.751 850.317 481.931C850.544 482.117 850.626 482.353 850.65 482.507C850.673 482.648 850.654 482.753 850.648 482.788C850.643 482.811 850.638 482.827 850.636 482.836C850.634 482.841 850.633 482.844 850.633 482.846C850.633 482.846 850.631 482.849 850.632 482.849C850.632 482.848 850.631 482.851 850.631 482.85C850.632 482.848 850.631 482.85 850.632 482.849C850.632 482.847 850.632 482.849 850.633 482.847C850.633 482.845 850.634 482.842 850.636 482.839C850.639 482.832 850.643 482.823 850.649 482.81C850.661 482.786 850.678 482.753 850.7 482.713C850.745 482.631 850.808 482.528 850.889 482.402C851.22 481.889 851.787 481.118 852.556 480.136C854.086 478.181 856.345 475.474 858.919 472.493C864.068 466.529 870.433 459.514 874.664 455.284L873.957 454.577L873.25 453.87C868.969 458.149 862.568 465.205 857.405 471.186C854.823 474.177 852.54 476.911 850.981 478.903C850.205 479.894 849.591 480.724 849.208 481.318C849.026 481.601 848.854 481.892 848.759 482.146C848.724 482.238 848.625 482.507 848.675 482.82C848.705 483.012 848.802 483.277 849.052 483.481C849.296 483.68 849.562 483.72 849.733 483.72V482.72ZM873.957 454.577H874.957V72.3523H873.957H872.957V454.577H873.957ZM873.957 72.3523L874.664 71.645L853.058 50.0467L852.351 50.7539L851.644 51.4612L873.25 73.0595L873.957 72.3523ZM852.351 50.7539L853.058 50.0467C853.151 50.1394 853.201 50.2415 853.224 50.3208C853.234 50.3582 853.239 50.388 853.241 50.4072C853.242 50.4263 853.242 50.4373 853.242 50.4384C853.242 50.4389 853.243 50.4145 853.257 50.3599C853.271 50.3065 853.294 50.2353 853.33 50.1445C853.479 49.7645 853.785 49.2087 854.27 48.4769C855.229 47.0276 856.763 45.0667 858.72 42.7593C862.625 38.1536 868.13 32.2628 873.848 26.506C879.566 20.7491 885.478 15.1451 890.197 11.1091C892.56 9.0878 894.601 7.47942 896.157 6.44265C896.94 5.9214 897.564 5.56907 898.023 5.37692C898.254 5.28059 898.406 5.24016 898.493 5.22751C898.591 5.21331 898.521 5.24562 898.389 5.17929L898.836 4.2848L899.283 3.39032C898.905 3.20127 898.509 3.20418 898.205 3.24834C897.891 3.29406 897.567 3.39976 897.252 3.53177C896.619 3.7963 895.872 4.22949 895.049 4.77818C893.393 5.88131 891.281 7.55053 888.897 9.58918C884.122 13.673 878.168 19.3181 872.429 25.0966C866.689 30.8753 861.146 36.8064 857.195 41.4658C855.223 43.791 853.627 45.8236 852.602 47.3732C852.094 48.1408 851.695 48.8358 851.468 49.4137C851.356 49.699 851.262 50.0153 851.245 50.331C851.228 50.6458 851.284 51.101 851.644 51.4612L852.351 50.7539ZM898.836 4.2848L898.163 5.02485C905.371 11.5754 931.507 36.4003 940.62 47.4628L941.392 46.8269L942.164 46.1911C932.945 35.0008 906.704 10.0842 899.508 3.54475L898.836 4.2848ZM941.392 46.8269L940.497 47.2743C940.38 47.0389 940.416 46.8467 940.417 46.8376C940.422 46.8063 940.425 46.8169 940.397 46.8843C940.343 47.0162 940.231 47.2284 940.044 47.5301C939.674 48.1252 939.089 48.9402 938.328 49.9293C936.811 51.9008 934.657 54.4814 932.288 57.2169C927.55 62.6888 922.002 68.7232 919.079 71.645L919.786 72.3523L920.493 73.0595C923.463 70.0908 929.045 64.0171 933.8 58.5262C936.178 55.7804 938.361 53.1659 939.913 51.149C940.687 50.144 941.319 49.2665 941.742 48.5858C941.951 48.2496 942.13 47.9282 942.247 47.6449C942.304 47.5048 942.362 47.3374 942.391 47.1596C942.416 47.004 942.445 46.6968 942.286 46.3796L941.392 46.8269ZM919.786 72.3523H918.786V446.069H919.786H920.786V72.3523H919.786ZM919.786 446.069L919.394 446.988L995.994 479.713L996.387 478.793L996.78 477.874L920.179 445.149L919.786 446.069ZM996.387 478.793H997.387V72.3523H996.387H995.387V478.793H996.387ZM996.387 72.3523L997.094 71.645L975.489 50.0467L974.782 50.7539L974.075 51.4612L995.68 73.0595L996.387 72.3523ZM974.782 50.7539L975.489 50.0467C975.582 50.1394 975.631 50.2415 975.654 50.3208C975.665 50.3582 975.669 50.388 975.671 50.4072C975.673 50.4263 975.672 50.4373 975.672 50.4384C975.672 50.4389 975.674 50.4145 975.688 50.3599C975.702 50.3065 975.724 50.2353 975.76 50.1444C975.909 49.7645 976.216 49.2087 976.7 48.4769C977.659 47.0276 979.194 45.0667 981.151 42.7593C985.056 38.1536 990.561 32.2628 996.278 26.506C1002 20.7491 1007.91 15.1451 1012.63 11.1091C1014.99 9.0878 1017.03 7.47942 1018.59 6.44265C1019.37 5.9214 1019.99 5.56907 1020.45 5.37692C1020.68 5.28059 1020.84 5.24016 1020.92 5.22751C1021.02 5.21331 1020.95 5.24562 1020.82 5.17929L1021.27 4.2848L1021.71 3.39031C1021.34 3.20127 1020.94 3.20418 1020.64 3.24834C1020.32 3.29406 1020 3.39976 1019.68 3.53177C1019.05 3.7963 1018.3 4.22949 1017.48 4.77818C1015.82 5.88131 1013.71 7.55053 1011.33 9.58918C1006.55 13.673 1000.6 19.3181 994.859 25.0966C989.12 30.8753 983.576 36.8064 979.625 41.4658C977.653 43.791 976.058 45.8236 975.032 47.3732C974.524 48.1408 974.125 48.8358 973.898 49.4137C973.786 49.699 973.692 50.0153 973.675 50.331C973.658 50.6458 973.715 51.101 974.075 51.4612L974.782 50.7539ZM1021.27 4.2848L1020.59 5.02485C1027.8 11.5754 1053.94 36.4003 1063.05 47.4628L1063.82 46.8269L1064.59 46.1911C1055.38 35.0008 1029.13 10.0842 1021.94 3.54476L1021.27 4.2848ZM1063.82 46.8269L1062.93 47.2743C1062.81 47.0389 1062.85 46.8467 1062.85 46.8376C1062.85 46.8063 1062.86 46.8169 1062.83 46.8843C1062.77 47.0162 1062.66 47.2284 1062.47 47.5301C1062.1 48.1252 1061.52 48.9402 1060.76 49.9293C1059.24 51.9008 1057.09 54.4814 1054.72 57.2169C1049.98 62.6888 1044.43 68.7232 1041.51 71.645L1042.22 72.3523L1042.92 73.0595C1045.89 70.0908 1051.48 64.0171 1056.23 58.5262C1058.61 55.7804 1060.79 53.1659 1062.34 51.149C1063.12 50.144 1063.75 49.2665 1064.17 48.5858C1064.38 48.2496 1064.56 47.9282 1064.68 47.6449C1064.73 47.5048 1064.79 47.3374 1064.82 47.1596C1064.85 47.0041 1064.88 46.6968 1064.72 46.3796L1063.82 46.8269ZM1042.22 72.3523H1041.22V444.76H1042.22H1043.22V72.3523H1042.22ZM1042.22 444.76L1041.5 445.46L1075.55 480.148L1076.26 479.448L1076.98 478.747L1042.93 444.059L1042.22 444.76ZM1076.26 479.448L1077.1 479.994C1082.12 472.303 1085.43 461.669 1086.59 451.003C1087.74 440.345 1086.77 429.511 1083.06 421.436L1082.15 421.852L1081.25 422.269C1084.74 429.902 1085.73 440.338 1084.6 450.788C1083.46 461.229 1080.23 471.54 1075.42 478.901L1076.26 479.448ZM1082.15 421.852L1083.12 421.61C1082.31 418.349 1082.15 416.433 1082.3 415.472C1082.38 414.975 1082.5 414.973 1082.4 415.041C1082.23 415.148 1082.15 415.031 1082.36 415.138C1082.57 415.243 1082.88 415.485 1083.27 415.908C1083.64 416.32 1084.04 416.859 1084.43 417.499C1085.22 418.781 1085.96 420.411 1086.43 422.116L1087.39 421.852L1088.36 421.589C1087.84 419.693 1087.02 417.888 1086.14 416.449C1085.69 415.73 1085.22 415.088 1084.75 414.566C1084.29 414.056 1083.78 413.612 1083.26 413.349C1082.73 413.088 1081.99 412.92 1081.31 413.363C1080.69 413.765 1080.43 414.484 1080.33 415.163C1080.11 416.554 1080.36 418.811 1081.18 422.095L1082.15 421.852ZM1087.39 421.852L1086.43 422.141C1095.47 452.131 1083.07 479.937 1067.7 499.612C1060.02 509.44 1051.64 517.188 1044.91 522.103C1041.54 524.564 1038.62 526.291 1036.44 527.218C1035.34 527.685 1034.48 527.924 1033.88 527.981C1033.23 528.041 1033.15 527.875 1033.19 527.921L1032.4 528.535L1031.61 529.149C1032.22 529.931 1033.21 530.052 1034.06 529.972C1034.96 529.888 1036.03 529.561 1037.22 529.059C1039.6 528.049 1042.66 526.227 1046.09 523.718C1052.97 518.693 1061.49 510.815 1069.28 500.844C1084.84 480.922 1097.65 452.441 1088.35 421.564L1087.39 421.852ZM1032.4 528.535L1033.12 527.842C1017.48 511.559 1014.76 506.876 998.374 491.802L997.697 492.538L997.02 493.274C1013.36 508.306 1015.89 512.787 1031.67 529.228L1032.4 528.535ZM997.697 492.538L996.936 491.889C989.447 500.677 979.991 509.806 972.237 516.659C968.362 520.085 964.923 522.932 962.38 524.877C961.105 525.852 960.072 526.587 959.328 527.054C958.953 527.29 958.68 527.439 958.502 527.518C958.411 527.558 958.38 527.564 958.394 527.561C958.402 527.559 958.446 527.55 958.515 527.552C958.58 527.553 958.711 527.565 958.861 527.641L958.414 528.535L957.967 529.429C958.322 529.607 958.669 529.547 958.805 529.518C958.983 529.481 959.157 529.415 959.309 529.348C959.618 529.211 959.987 529.003 960.392 528.748C961.212 528.233 962.301 527.455 963.594 526.466C966.186 524.484 969.663 521.604 973.562 518.158C981.358 511.267 990.888 502.07 998.458 493.186L997.697 492.538ZM1206.43 540.97L1207.19 540.324C1199.1 530.786 1190.48 514.54 1181.37 494.979C1172.27 475.436 1162.75 452.727 1152.84 430.284C1142.93 407.864 1132.64 385.732 1122.04 367.437C1111.45 349.178 1100.46 334.59 1089.11 327.414L1088.58 328.26L1088.04 329.105C1098.95 336.001 1109.74 350.211 1120.31 368.44C1130.85 386.633 1141.11 408.68 1151.01 431.092C1160.9 453.482 1170.45 476.26 1179.56 495.823C1188.66 515.369 1197.38 531.848 1205.66 541.617L1206.43 540.97ZM1088.58 328.26L1089.2 327.479C1087.39 326.031 1085.5 325.435 1083.57 325.628C1081.67 325.818 1079.85 326.757 1078.13 328.133L1078.76 328.914L1079.38 329.695C1080.94 328.453 1082.39 327.756 1083.77 327.618C1085.11 327.484 1086.49 327.87 1087.95 329.041L1088.58 328.26ZM1078.76 328.914L1078.17 328.103C1072.28 332.361 1062.8 339.222 1055.04 344.447C1051.15 347.064 1047.73 349.248 1045.42 350.49C1044.22 351.132 1043.45 351.451 1043.08 351.517C1042.99 351.531 1043 351.52 1043.06 351.529C1043.13 351.539 1043.33 351.59 1043.49 351.795C1043.65 352 1043.65 352.202 1043.64 352.261C1043.64 352.314 1043.63 352.307 1043.67 352.215L1042.75 351.821L1041.83 351.427C1041.75 351.623 1041.67 351.855 1041.65 352.105C1041.63 352.36 1041.67 352.715 1041.91 353.03C1042.16 353.346 1042.5 353.465 1042.75 353.505C1042.99 353.543 1043.23 353.52 1043.42 353.486C1044.15 353.357 1045.19 352.879 1046.36 352.253C1048.77 350.959 1052.27 348.725 1056.16 346.106C1063.95 340.859 1073.46 333.976 1079.34 329.725L1078.76 328.914ZM1042.75 351.821L1043.59 352.366C1051.35 340.4 1065.81 326.903 1081.44 314.144C1097.04 301.403 1113.71 289.478 1125.83 280.635L1125.24 279.827L1124.65 279.019C1112.55 287.847 1095.83 299.811 1080.17 312.595C1064.53 325.362 1049.86 339.027 1041.91 351.277L1042.75 351.821ZM1125.24 279.827H1126.24V90.0236H1125.24H1124.24V279.827H1125.24ZM1125.24 90.0236L1126.07 90.5784C1131.26 82.8004 1139.23 73.6892 1147.23 65.611C1155.23 57.5291 1163.2 50.5442 1168.36 46.9966L1167.8 46.1725L1167.23 45.3483C1161.92 49.0002 1153.85 56.087 1145.81 64.2038C1137.77 72.3243 1129.7 81.539 1124.41 89.4688L1125.24 90.0236ZM1167.8 46.1725L1168.61 46.7513C1175.76 36.69 1186.83 25.291 1196.3 16.4705C1201.04 12.0651 1205.36 8.31728 1208.57 5.71642C1210.18 4.41414 1211.5 3.40951 1212.44 2.75546C1212.92 2.42584 1213.28 2.2017 1213.52 2.07347C1213.58 2.04252 1213.63 2.01996 1213.66 2.00413C1213.68 1.99633 1213.69 1.99076 1213.7 1.98697C1213.71 1.98313 1213.72 1.98172 1213.72 1.98183C1213.72 1.98186 1213.71 1.9844 1213.7 1.98756C1213.68 1.9906 1213.65 1.99556 1213.62 1.9982C1213.56 2.00235 1213.38 2.00799 1213.18 1.90682L1213.63 1.01233L1214.07 0.117845C1213.83 -0.00377536 1213.6 -0.005808 1213.47 0.00321549C1213.34 0.0129672 1213.22 0.0435638 1213.13 0.0716012C1212.94 0.127714 1212.76 0.214104 1212.59 0.30401C1212.24 0.487695 1211.8 0.764653 1211.3 1.10998C1210.3 1.80582 1208.94 2.8465 1207.31 4.16219C1204.06 6.7973 1199.7 10.5762 1194.94 15.0065C1185.43 23.8573 1174.24 35.3656 1166.98 45.5936L1167.8 46.1725ZM1213.63 1.01233L1213.02 1.81009C1239.92 22.1414 1265.67 33.4281 1284.34 33.4281V32.4281V31.4281C1266.33 31.4281 1241.02 20.4619 1214.23 0.214579L1213.63 1.01233ZM1284.34 32.4281V33.4281C1294.19 33.4281 1304.08 27.1758 1310.87 22.1894C1312.58 20.9327 1314.11 19.7437 1315.4 18.7412C1316.71 17.7294 1317.74 16.9275 1318.5 16.4131C1318.89 16.1523 1319.15 15.9993 1319.32 15.9276C1319.4 15.8908 1319.41 15.8991 1319.36 15.9049C1319.31 15.9102 1319.08 15.9277 1318.84 15.7456C1318.59 15.5552 1318.55 15.3098 1318.54 15.2395C1318.54 15.1752 1318.55 15.1716 1318.53 15.2684C1318.48 15.4557 1318.37 15.7844 1318.13 16.301L1319.04 16.7202L1319.94 17.1394C1320.2 16.5924 1320.39 16.1132 1320.48 15.7205C1320.52 15.5273 1320.56 15.2906 1320.53 15.0468C1320.51 14.7969 1320.41 14.4255 1320.06 14.159C1319.72 13.9009 1319.35 13.8923 1319.13 13.9181C1318.9 13.9443 1318.69 14.0197 1318.52 14.093C1318.18 14.2415 1317.79 14.4809 1317.38 14.7571C1316.55 15.3164 1315.46 16.1661 1314.18 17.1613C1312.88 18.1657 1311.37 19.339 1309.69 20.5776C1302.89 25.5722 1293.47 31.4281 1284.34 31.4281V32.4281ZM1319.04 16.7202L1318.18 16.2056C1312.34 25.9285 1299.8 41.5657 1285.7 54.769C1278.65 61.3671 1271.24 67.331 1264.11 71.6395C1256.95 75.9607 1250.19 78.5517 1244.4 78.5517V79.5517V80.5517C1250.72 80.5517 1257.87 77.7431 1265.14 73.3514C1272.43 68.9468 1279.96 62.8844 1287.07 56.2291C1301.28 42.9253 1313.94 27.1468 1319.89 17.2348L1319.04 16.7202ZM1244.4 79.5517V78.5517C1223.12 78.5517 1204.38 68.2552 1172.24 49.2388L1171.73 50.0995L1171.22 50.9601C1203.24 69.9044 1222.47 80.5517 1244.4 80.5517V79.5517ZM1171.73 50.0995H1170.73V232.049H1171.73H1172.73V50.0995H1171.73ZM1171.73 232.049L1172.56 232.604C1172.84 232.181 1174.71 229.909 1177.69 226.511C1180.63 223.145 1184.61 218.738 1189.06 214.087C1197.99 204.755 1208.71 194.541 1216.76 189.71L1216.25 188.852L1215.73 187.995C1207.42 192.981 1196.53 203.384 1187.62 212.705C1183.15 217.38 1179.15 221.809 1176.18 225.193C1173.25 228.544 1171.27 230.935 1170.89 231.494L1171.73 232.049ZM1216.25 188.852L1215.56 189.575L1320.31 289.713L1321 288.99L1321.69 288.267L1216.94 188.129L1216.25 188.852ZM1321 288.99L1320.18 288.423C1313.03 298.814 1303.27 309.232 1292.8 319.698L1293.5 320.406L1294.21 321.113C1304.69 310.636 1314.57 300.109 1321.82 289.557L1321 288.99ZM1293.5 320.406H1292.5V444.105H1293.5H1294.5V320.406H1293.5ZM1293.5 444.105H1292.5C1292.5 443.896 1292.58 443.776 1292.54 443.863C1292.52 443.901 1292.48 443.973 1292.41 444.088C1292.27 444.314 1292.04 444.634 1291.74 445.051C1291.12 445.88 1290.21 447.032 1289.04 448.467C1286.7 451.334 1283.35 455.292 1279.32 459.968C1271.27 469.319 1260.51 481.525 1249.71 493.589C1238.91 505.653 1228.07 517.571 1219.85 526.348C1215.74 530.738 1212.3 534.335 1209.84 536.769C1208.61 537.989 1207.64 538.902 1206.97 539.474C1206.63 539.766 1206.4 539.94 1206.26 540.023C1206.19 540.071 1206.2 540.048 1206.29 540.026C1206.3 540.023 1206.89 539.863 1207.26 540.416L1206.43 540.97L1205.59 541.525C1206 542.139 1206.68 541.992 1206.81 541.956C1207.01 541.901 1207.2 541.799 1207.32 541.722C1207.59 541.556 1207.91 541.301 1208.27 540.995C1209 540.373 1210.01 539.417 1211.25 538.19C1213.73 535.728 1217.2 532.11 1221.31 527.715C1229.55 518.923 1240.4 506.993 1251.2 494.923C1262.01 482.852 1272.77 470.637 1280.84 461.274C1284.87 456.593 1288.23 452.62 1290.59 449.732C1291.77 448.289 1292.7 447.108 1293.34 446.241C1293.66 445.81 1293.92 445.442 1294.1 445.15C1294.19 445.006 1294.28 444.863 1294.34 444.728C1294.38 444.644 1294.5 444.396 1294.5 444.105H1293.5ZM1129.17 278.518L1128.69 279.393C1133.11 281.843 1137.78 286.144 1142.62 291.958C1147.46 297.763 1152.44 305.022 1157.5 313.328C1167.63 329.942 1178.07 350.663 1188.42 372.136C1198.76 393.588 1209.03 415.81 1218.78 435.338C1228.53 454.858 1237.81 471.792 1246.23 482.677L1247.02 482.066L1247.81 481.454C1239.53 470.741 1230.32 453.969 1220.57 434.444C1210.82 414.928 1200.59 392.767 1190.22 371.267C1179.87 349.789 1169.4 328.991 1159.21 312.287C1154.12 303.934 1149.08 296.585 1144.16 290.677C1139.24 284.78 1134.39 280.266 1129.65 277.643L1129.17 278.518ZM1247.02 482.066H1248.02V309.279H1247.02H1246.02V482.066H1247.02ZM1247.02 309.279L1247.71 308.56L1171.77 235.256L1171.07 235.976L1170.38 236.695L1246.32 309.999L1247.02 309.279ZM1171.07 235.976L1170.16 235.57C1169.89 236.179 1169.2 237.196 1168.11 238.58C1167.04 239.94 1165.63 241.584 1163.97 243.426C1160.65 247.111 1156.36 251.556 1151.87 256.049C1142.87 265.047 1133.08 274.172 1128.55 277.732L1129.17 278.518L1129.79 279.304C1134.42 275.664 1144.28 266.464 1153.28 257.463C1157.79 252.957 1162.1 248.485 1165.45 244.765C1167.13 242.906 1168.57 241.226 1169.68 239.819C1170.77 238.437 1171.6 237.245 1171.99 236.382L1171.07 235.976ZM70.3991 473.557H71.3991V105.731H70.3991H69.3991V473.557H70.3991ZM116.229 62.5348H115.229V430.361H116.229H117.229V62.5348H116.229Z" fill="#F7BD57" mask="url(#path-1-outside-1_1_6)"/>
</svg>
